{"title":"Sanatorium Pod KlepsydrÄ… *1973* [mini-HD.1080p.BluRay.AAC.x264]","uid":9425333,"size":2521769374,"categoryP":"video","categoryS":"hd___movies","magnet":"?xt=urn:btih:a6a54bba6f6b7ce40fc719e53c34c76ba33e1f40&amp;dn=Sanatorium+Pod+Klepsydr%C4%85+%2A1973%2A+%5Bmini-HD.1080p.BluRay.AAC.x264%5D+&amp;tr=udp%3A%2F%2Ftracker.openbittorrent.com%3A80&amp;tr=udp%3A%2F%2Fopen.demonii.com%3A1337&amp;tr=udp%3A%2F%2Ftracker.coppersurfer.tk%3A6969&amp;tr=udp%3A%2F%2Fexodus.desync.com%3A6969","seeders":9,"leechers":1,"uploader":"gixer1000k9","files":-1,"time":1388675925,"description":"Set in pre- World War II era. A young man is on a strange train to see his dying father in a sanatorium. But the place is going to ruin and recalls a lot of memories from the past. He is beset by soldiers from the past, colonial black mercenaries, girls from his early life, and his parents. It is an interior adventure, with unusual atmospheric flair and extraordinary sets.\n\n &lt;a href=&quot;\nhttp://i.imgur.com/EevZsKAl.jpg&quot; rel=&quot;nofollow&quot; target=&quot;_NEW&quot;&gt;\nhttp://i.imgur.com/EevZsKAl.jpg&lt;/a&gt;\n &lt;a href=&quot;\nhttp://i.imgur.com/ljIiSwyl.jpg&quot; rel=&quot;nofollow&quot; target=&quot;_NEW&quot;&gt;\nhttp://i.imgur.com/ljIiSwyl.jpg&lt;/a&gt;\n &lt;a href=&quot;\nhttp://i.imgur.com/8TsyCBYl.jpg&quot; rel=&quot;nofollow&quot; target=&quot;_NEW&quot;&gt;\nhttp://i.imgur.com/8TsyCBYl.jpg&lt;/a&gt;\n &lt;a href=&quot;\nhttp://i.imgur.com/RZtZ7JGl.jpg&quot; rel=&quot;nofollow&quot; target=&quot;_NEW&quot;&gt;\nhttp://i.imgur.com/RZtZ7JGl.jpg&lt;/a&gt;\n\n\nTechnical Data:\n\nGeneral\n\nFormat : MPEG-4\nFormat profile : Base Media\nCodec ID : isom\nFile size : 2.35 GiB\nDuration : 2h 4mn\nOverall bit rate mode : Variable\nOverall bit rate : 2 700 Kbps\nMovie name : The Hourglass Sanatorium 1973 (gixerk9)\nEncoded date : UTC 2014-01-01 15:52:58\nTagged date : UTC 2014-01-01 15:52:58\nWriting application : Lavf55.22.100\n\nVideo\nID : 1\nFormat : AVC\nFormat/Info : Advanced Video Codec\nFormat profile : &lt;a class=&quot;__cf_email__&quot; href=&quot;/cdn-cgi/l/email-protection&quot; data-cfemail=&quot;125a7b757a525e263c23&quot;&gt;[email&amp;#160;protected]&lt;/a&gt;&lt;script cf-hash='f9e31' type=&quot;text/javascript&quot;&gt;\n/* &lt;![CDATA[ */!function(){try{var t=&quot;currentScript&quot;in document?document.currentScript:function(){for(var t=document.getElementsByTagName(&quot;script&quot;),e=t.length;e--;)if(t[e].getAttribute(&quot;cf-hash&quot;))return t[e]}();if(t&amp;&amp;t.previousSibling){var e,r,n,i,c=t.previousSibling,a=c.getAttribute(&quot;data-cfemail&quot;);if(a){for(e=&quot;&quot;,r=parseInt(a.substr(0,2),16),n=2;a.length-n;n+=2)i=parseInt(a.substr(n,2),16)^r,e+=String.fromCharCode(i);e=document.createTextNode(e),c.parentNode.replaceChild(e,c)}}}catch(u){}}();/* ]]&gt; */&lt;/script&gt;\nFormat settings, CABAC : Yes\nFormat settings, ReFrames : 5 frames\nCodec ID : avc1\nCodec ID/Info : Advanced Video Coding\nDuration : 2h 4mn\nBit rate : 2 533 Kbps\nWidth : 1 920 pixels\nHeight : 1 036 pixels\nDisplay aspect ratio : 1.85:1\nFrame rate mode : Constant\nFrame rate : 24.000 fps\nColor space : YUV\nChroma subsampling : 4:2:0\nBit depth : 8 bits\nScan type : Progressive\nBits/(Pixel*Frame) : 0.053\nStream size : 2.18 GiB (93%)\nWriting library : x264 core 140 r2345\nLanguage : Polish\nEncoded date : UTC 2014-01-01 15:52:58\nTagged date : UTC 2014-01-01 15:52:58\n\nAudio\nID : 2\nFormat : AAC\nFormat/Info : Advanced Audio Codec\nFormat profile : LC\nCodec ID : 40\nDuration : 2h 4mn\nBit rate mode : Variable\nBit rate : 184 Kbps\nMaximum bit rate : 256 Kbps\nChannel count : 2 channels\nChannel positions : Front: L R\nSampling rate : 48.0 KHz\nCompression mode : Lossy\nDelay relative to video : 42ms\nStream size : 164 MiB (7%)\nLanguage : Polish\nEncoded date : UTC 2014-01-01 15:52:58\nTagged date : UTC 2014-01-01 15:52:58","torrent":{"xt":"urn:btih:a6a54bba6f6b7ce40fc719e53c34c76ba33e1f40","amp;dn":"Sanatorium+Pod+Klepsydr%C4%85+%2A1973%2A+%5Bmini-HD.1080p.BluRay.AAC.x264%5D+","amp;tr":["udp%3A%2F%2Ftracker.openbittorrent.com%3A80","udp%3A%2F%2Fopen.demonii.com%3A1337","udp%3A%2F%2Ftracker.coppersurfer.tk%3A6969","udp%3A%2F%2Fexodus.desync.com%3A6969"],"infoHash":"a6a54bba6f6b7ce40fc719e53c34c76ba33e1f40","infoHashBuffer":{"type":"Buffer","data":[166,165,75,186,111,107,124,228,15,199,25,229,60,52,199,107,163,62,31,64]},"announce":[],"urlList":[]}}